<?xml version="1.0" encoding="UTF-8"?>
<svg width="17px" height="13px" viewBox="0 0 17 13" version="1.1" xmlns="http://www.w3.org/2000/svg" xmlns:xlink="http://www.w3.org/1999/xlink">
    <title>Shape</title>
    <g id="Page-1" stroke="none" stroke-width="1" fill="none" fill-rule="evenodd">
        <path d="M5.7,0.165685425 C5.9,-0.0343145751 6.3,-0.0343145751 6.6,0.165685425 C6.8,0.365685425 6.8,0.765685425 6.7,0.965685425 L6.6,1.06568542 L4,3.66568542 L12.1,3.66568542 L9.5,1.06568542 C9.3,0.865685425 9.3,0.465685425 9.5,0.165685425 C9.7,-0.0343145751 10.1,-0.0343145751 10.3,0.0656854249 L10.4,0.165685425 L13.9,3.66568542 L14.9,3.66568542 C14.9,3.66568542 14.9,3.66568542 14.9,3.66568542 L15.5,3.66568542 C15.8,3.66568542 16.1,3.96568542 16.1,4.26568542 C16.1,4.56568542 15.9,4.86568542 15.6,4.86568542 L15.5,4.86568542 L15.4,4.86568542 L13.5,12.4656854 C13.4,12.7656854 13.2,12.8656854 13,12.9656854 L12.9,12.9656854 L3.1,12.9656854 C2.8,12.9656854 2.6,12.7656854 2.5,12.5656854 L2.5,12.4656854 L0.7,4.96568542 L0.6,4.96568542 C0.3,4.96568542 1.77635684e-15,4.66568542 1.77635684e-15,4.36568542 C1.77635684e-15,4.06568542 0.2,3.76568542 0.5,3.76568542 L0.6,3.76568542 L1.1,3.76568542 C1.1,3.76568542 1.1,3.76568542 1.1,3.76568542 L2.1,3.76568542 C2.2,3.66568542 5.7,0.165685425 5.7,0.165685425 Z M1.9,4.96568542 L14,4.96568542 L12.4,11.7656854 L3.6,11.7656854 L1.9,4.96568542 Z M6.1,6.66568542 C6.1,6.36568542 5.8,6.16568542 5.5,6.16568542 C5.2,6.16568542 4.9,6.46568542 4.9,6.76568542 L4.9,10.4656854 L4.9,10.5656854 C4.9,10.8656854 5.2,11.0656854 5.5,11.0656854 C5.8,11.0656854 6.1,10.7656854 6.1,10.4656854 L6.1,6.66568542 L6.1,6.66568542 Z M8.6,6.66568542 C8.6,6.36568542 8.3,6.16568542 8,6.16568542 C7.7,6.16568542 7.4,6.46568542 7.4,6.76568542 L7.4,10.4656854 L7.4,10.5656854 C7.4,10.8656854 7.7,11.0656854 8,11.0656854 C8.3,11.0656854 8.6,10.7656854 8.6,10.4656854 L8.6,6.66568542 L8.6,6.66568542 Z M10.5,6.16568542 C10.8,6.16568542 11.1,6.36568542 11.1,6.66568542 L11.1,6.76568542 L11.1,10.4656854 C11.1,10.7656854 10.8,11.0656854 10.5,11.0656854 C10.2,11.0656854 9.9,10.8656854 9.9,10.5656854 L9.9,10.4656854 L9.9,6.76568542 C9.8,6.46568542 10.1,6.16568542 10.5,6.16568542 Z" id="Shape" fill="#4856A2"></path>
    </g>
</svg>