<?xml version="1.0" encoding="UTF-8"?>
<svg width="39px" height="33px" viewBox="0 0 39 33" version="1.1" xmlns="http://www.w3.org/2000/svg" xmlns:xlink="http://www.w3.org/1999/xlink">
    <title>comentario-grota</title>
    <g id="Page-1" stroke="none" stroke-width="1" fill="none" fill-rule="evenodd">
        <g id="comentario-grota" transform="translate(1.000000, 1.000000)" fill="#4856A2" fill-rule="nonzero">
            <path d="M6.34700894,27.3280965 C5.58153883,27.7937627 4.57948025,27.5502893 4.11318816,26.7854451 C3.88723991,26.4142891 3.81964321,25.97804 3.92166416,25.5561865 C4.02431101,25.134333 4.2853094,24.7781985 4.6558395,24.5516243 C4.91934147,24.392021 5.21100874,24.3156618 5.49892064,24.3156618 C6.04720503,24.3156618 6.58359741,24.5929334 6.88903438,25.0942757 C7.35470057,25.8597458 7.11185315,26.8618044 6.34700894,27.3280965 M4.33037388,24.0177355 C3.81651373,24.3300574 3.45599797,24.8245147 3.31329381,25.4091011 C3.17184144,25.9930615 3.26572576,26.5976765 3.57867347,27.1102848 C4.00240467,27.8062806 4.74471665,28.1905804 5.50455369,28.1905804 C5.90387498,28.1905804 6.30820342,28.084804 6.67247456,27.8626111 C7.73211552,27.2166871 8.06884726,25.828451 7.42354907,24.7688101 C6.7769991,23.709795 5.39001483,23.3705597 4.33037388,24.0177355" id="Fill-1" stroke="#4856A2" stroke-width="0.6"></path>
            <path d="M34.4830112,23.4761482 L23.7620485,30.0061152 C23.0159811,30.4605153 22.1597562,30.7008591 21.2847544,30.7008591 L5.58416759,30.7008591 C3.90989733,30.7302762 2.31010862,29.8546485 1.43448092,28.4175926 C0.558853217,26.9792849 0.510659269,25.1641882 1.31180541,23.6770607 L8.51273229,9.73148467 C8.91330536,8.95537435 9.51979803,8.3044431 10.2664913,7.84879123 L20.987454,1.31945015 C21.7591831,0.849402683 22.6122786,0.62533212 23.4559856,0.62533212 C25.063285,0.62533212 26.6342826,1.43837028 27.5305648,2.90859863 L36.0721597,16.9324116 C37.4378635,19.1749949 36.7249686,22.1098185 34.4830112,23.4761482 M36.6066744,16.6069459 L28.0644536,2.58313301 C26.5191178,0.0457529556 23.1981167,-0.759774458 20.6619884,0.784935454 L9.94102565,7.31490243 C9.09606683,7.82938847 8.41008544,8.56606739 7.95631126,9.44419867 L0.757887962,23.3847675 C-0.145279138,25.0627931 -0.0908262356,27.1151042 0.900592119,28.7424323 C1.8744854,30.3434728 3.63199976,31.3273805 5.49779402,31.3273805 C5.5284629,31.3273805 5.55913178,31.3273805 5.58980065,31.3267546 L21.2847544,31.3267546 C22.274295,31.3267546 23.2431811,31.0544901 24.0875141,30.540004 L34.8084768,24.0106629 C37.3446051,22.4653271 38.1513843,19.1437001 36.6066744,16.6069459" id="Fill-3" stroke="#4856A2" stroke-width="0.6"></path>
            <path d="M23.3421978,14.4244486 C24.2591346,15.4928521 24.4412702,17.0294253 23.7640513,18.2949859 C23.0223652,19.6813443 21.4401016,20.3879802 19.9091614,20.0199537 L19.6049762,19.946098 L19.9510964,18.5196824 L14.5928056,21.7843529 L17.8555985,27.1432695 L18.5547237,24.2691577 L18.8589089,24.3423875 C22.1060543,25.1328934 25.5115513,23.7809593 27.3366624,20.9838326 C29.11045,18.2655688 29.0315872,14.7298855 27.1626635,12.0973694 L23.3421978,14.4244486 Z" id="Fill-5"></path>
            <path d="M26.8536589,11.5529655 L23.5896143,6.19342301 L22.8917409,9.06753481 L22.5875557,8.99430504 C21.9704228,8.84409014 21.347031,8.77211217 20.730524,8.77211217 C18.103015,8.77211217 15.5869153,10.0877444 14.1091762,12.3528599 C12.3353886,15.0717496 12.4148773,18.6074329 14.2831752,21.2399491 L18.1036409,18.912244 C17.1873299,17.8444664 17.0045685,16.308519 17.6811614,15.0423325 C18.4228475,13.6547224 20.0063629,12.9480864 21.5373032,13.316113 L21.8408624,13.3905945 L21.4941164,14.8170102 L26.8536589,11.5529655 Z" id="Fill-16"></path>
        </g>
    </g>
</svg>