<?xml version="1.0" encoding="UTF-8"?>
<svg width="32px" height="32px" viewBox="0 0 32 32" version="1.1" xmlns="http://www.w3.org/2000/svg" xmlns:xlink="http://www.w3.org/1999/xlink">
    <title>Shape</title>
    <g id="Page-1" stroke="none" stroke-width="1" fill="none" fill-rule="evenodd">
        <path d="M29.5263672,5.51074219 C28.3229981,5.51074219 27.3181153,6.37475587 27.0981445,7.51464844 L22.5126953,7.51464844 C22.3105469,7.51464844 22.1311035,7.644043 22.0671387,7.83569337 L20.2802734,13.1962891 C18.3466797,10.4873047 16.5166016,8.36425781 16.3549805,8.17773438 C16.1704101,7.96484375 15.8295899,7.96484375 15.6450195,8.17773438 C15.5610351,8.27465819 15.0249024,8.89648438 14.2583008,9.85107425 L11.4299316,2.30859375 C11.3613281,2.12524413 11.1860351,2.00390625 10.9902344,2.00390625 L4.9018555,2.00390625 C4.68188475,0.8637695 3.67700194,0 2.47363281,0 C1.10961913,0 0,1.10961913 0,2.47363281 C0,3.83740237 1.10961913,4.94726562 2.47363281,4.94726562 C3.67700194,4.94726562 4.68188475,4.08325194 4.9018555,2.94335938 L10.6647949,2.94335938 L13.5563965,10.6540527 C13.5632324,10.6726074 13.5720215,10.6896973 13.5810547,10.7070312 C12.8393555,11.6569824 11.9763184,12.8083496 11.123291,14.046875 C11.0810547,14.0344238 11.0366211,14.0273438 10.9902344,14.0273438 L4.97851562,14.0273438 C4.82690431,14.0273438 4.68457031,14.1008301 4.59643556,14.2241211 L2.22290038,17.546875 C0.976318375,17.6728516 0,18.7285156 0,20.0078125 C0,21.3718262 1.10961913,22.4814453 2.47363281,22.4814453 C3.83740237,22.4814453 4.94726562,21.3718262 4.94726562,20.0078125 C4.94726562,18.9289551 4.25268556,18.0097656 3.28759763,17.6723633 L5.22021487,14.9667969 L10.503418,14.9667969 C8.652832,17.7749024 7.01367188,20.8676758 7.01367188,23.0136719 C7.01367188,27.96875 11.0449219,32 16,32 C18.9594726,32 21.7292481,30.5424805 23.4086914,28.1008301 C23.5556641,27.887207 23.501709,27.5947266 23.2878418,27.4477539 C23.0742188,27.3007812 22.7817383,27.3547363 22.6347656,27.5686035 C21.2197266,29.6254883 18.9411621,30.9023438 16.4697266,31.0466309 L16.4697266,27.8229981 L22.7094726,24.9431153 C22.9450684,24.8342285 23.0478516,24.5554199 22.939209,24.3198242 C22.8305664,24.0842285 22.5515137,23.9814453 22.315918,24.0900879 L16.4697266,26.7883301 L16.4697266,22.8029785 L21.2197266,20.4279785 C21.4516601,20.3120117 21.5458984,20.0297851 21.4299316,19.7978516 C21.3139649,19.5656738 21.0319824,19.4716797 20.7998047,19.5876465 L16.4697266,21.7526856 L16.4697266,18.2941894 L19.2158203,16.9211426 C19.4477539,16.8051758 19.5419922,16.5229492 19.4260254,16.2910156 C19.3100586,16.059082 19.0280762,15.9648438 18.7956543,16.0810547 L16.4697266,17.2438965 L16.4697266,14.4970703 C16.4697266,14.237793 16.2595215,14.0273438 16,14.0273438 C15.7404785,14.0273438 15.5302734,14.237793 15.5302734,14.4970703 L15.5302734,17.2438965 L13.2041016,16.0808106 C12.9719238,15.9648438 12.6899414,16.0588379 12.5739746,16.2910156 C12.4580078,16.5229492 12.5520019,16.8051758 12.7839356,16.9211426 L15.5302734,18.2941894 L15.5302734,21.7526856 L11.2001953,19.5876465 C10.9680176,19.4716797 10.6860351,19.5656738 10.5700684,19.7978516 C10.4541016,20.0297851 10.5480957,20.3117676 10.7800293,20.4277344 L15.5302734,22.8029785 L15.5302734,26.7883301 L9.684082,24.0900879 C9.4487305,23.9814453 9.16943362,24.0842285 9.060791,24.3198242 C8.95214844,24.5554199 9.05493163,24.8344726 9.29052737,24.9431153 L15.5302734,27.8229981 L15.5302734,31.0466309 C11.3110351,30.8024903 7.953125,27.2932129 7.953125,23.0136719 C7.953125,19.0737305 14.4008789,11.1230469 16,9.21215819 C17.5993653,11.1228027 24.046875,19.0722656 24.046875,23.0136719 C24.046875,23.9916992 23.8735351,24.9472656 23.5314941,25.8537597 C23.4399414,26.0964356 23.5625,26.3674316 23.8051758,26.4592285 C24.0480957,26.5507812 24.3188476,26.4282226 24.4104004,26.1855469 C24.7924805,25.1726074 24.9863281,24.1054688 24.9863281,23.0136719 C24.9863281,20.6582031 23.0117188,17.1623535 20.9504394,14.1540527 C20.9516601,14.1508789 20.9533691,14.1479492 20.9543457,14.1445312 L22.8510742,8.45410156 L27.0981445,8.45410156 C27.3181153,9.59399413 28.3229981,10.4580078 29.5263672,10.4580078 C30.8903809,10.4580078 32,9.3481445 32,7.984375 C32,6.62036131 30.8903809,5.51074219 29.5263672,5.51074219 Z M2.47363281,4.0078125 C1.62744138,4.0078125 0.939453125,3.31958006 0.939453125,2.47363281 C0.939453125,1.62768556 1.62744138,0.939453125 2.47363281,0.939453125 C3.31958006,0.939453125 4.0078125,1.62768556 4.0078125,2.47363281 C4.0078125,3.31958006 3.31958006,4.0078125 2.47363281,4.0078125 Z M4.0078125,20.0078125 C4.0078125,20.8537597 3.31958006,21.5419922 2.47363281,21.5419922 C1.62744138,21.5419922 0.939453125,20.8537597 0.939453125,20.0078125 C0.939453125,19.1621094 1.62719725,18.4738769 2.47290038,18.4736328 C2.4731445,18.4736328 2.4731445,18.4736328 2.4731445,18.4736328 C2.47338869,18.4736328 2.47363281,18.4736328 2.47363281,18.4736328 C3.31958006,18.4736328 4.0078125,19.1618653 4.0078125,20.0078125 Z M29.5263672,9.51855469 C28.6804199,9.51855469 27.9921875,8.83032225 27.9921875,7.984375 C27.9921875,7.13842775 28.6804199,6.45019531 29.5263672,6.45019531 C30.3725586,6.45019531 31.0605469,7.13842775 31.0605469,7.984375 C31.0605469,8.83032225 30.3725586,9.51855469 29.5263672,9.51855469 Z" id="Shape" fill="#4856A2" fill-rule="nonzero"></path>
    </g>
</svg>