<svg xmlns="http://www.w3.org/2000/svg" xmlns:xlink="http://www.w3.org/1999/xlink" width="200" height="59" viewBox="0 0 200 59">
  <defs>
    <path id="path-7" fill-rule="evenodd" d="M.0003696.00890783h28.5820913v40.6471286H.0003696V.00890782z"/>
    <mask id="mask-8" maskContentUnits="userSpaceOnUse" maskUnits="userSpaceOnUse">
      <rect width="200" height="59" x="0" y="0" fill="black"/>
      <use fill="white" xlink:href="#path-7"/>
    </mask>
  </defs>
  <g transform="translate(0 .00003743)">
    <path fill="rgb(255,255,255)" fill-rule="evenodd" d="M149.22479248 37.51110768c.21066284-.86301422.7428894-1.59297561 1.50149536-2.05405044 1.56433106-.95541764 3.61192322-.45460892 4.56640625 1.10879898.95265198 1.56433105.45553589 3.6137619-1.10879516 4.56733322-.5377655.32801819-1.13467408.48417282-1.72418213.48417282-1.12173462 0-2.2176056-.56733322-2.84315491-1.59482193-.46199036-.75675583-.6006012-1.64934158-.39176941-2.51143265zm1.18087769 2.03187561c.68836975 1.1291275 2.16769409 1.48856354 3.29774475.80110932 1.12913513-.6883812 1.48764038-2.16770554.80018615-3.2977562-.45091247-.74012375-1.24278259-1.14945602-2.05220031-1.14945602-.42503357 0-.85562134.11272812-1.2446289.3483467-.54701234.33448792-.93231202.86024476-1.08384706 1.4830208-.1506195.62277602-.05082702 1.26680373.28274537 1.8147354z"/>
    <path fill="rgb(255,255,255)" fill-rule="evenodd" d="M185.76455688 3.81347775l12.61076355 20.70314289c2.28042603 3.74497222 1.08940125 8.64863967-2.65464782 10.92999649l-15.82720948 9.63916778c-1.24647521.75952912-2.67681884 1.1614685-4.13766479 1.1614685h-23.17022705c-.04527283.00092316-.09054566.00092316-.13581848.00092316-2.75445557 0-5.3490448-1.45252609-6.78678894-3.81612014-1.4636078-2.40240097-1.54400635-5.43219376-.21066284-7.90943909l10.6269226-20.5802517c.66989136-1.2963724 1.68260193-2.38391971 2.92999268-3.14344787l15.82720947-9.6400919c3.74404907-2.28043198 8.64678955-1.09124405 10.9281311 2.65465188zm-6.3515625 40.4841373l15.82717896-9.64009476c3.30978394-2.01708984 4.36221313-6.34972572 2.34603882-9.66041946l-12.6098175-20.70314312c-1.3231659-2.17047596-3.64241029-3.37075192-6.01524354-3.37075192-1.24554443 0-2.5049591.33079201-3.64425659 1.02471596l-15.82719421 9.63916779c-1.1023407.67267132-1.99769593 1.6336317-2.5890503 2.77939129L146.2700348 34.95412445c-1.182724 2.19542313-1.11157227 4.8750267.18110657 6.99837875 1.29266357 2.12150193 3.65441894 3.41417695 6.12611389 3.37075043h23.17854309c1.29174805 0 2.55578613-.35481644 3.65719604-1.02563858z"/>
    <path fill="rgb(255,255,255)" fill-rule="evenodd" d="M178.79316397 21.2946333c1.35365997 1.57726797 1.62254396 3.8456879.62277599 5.71401586-1.09493998 2.04665995-3.43081192 3.08985593-5.69091586 2.54654394l-.449064-.109032.510972-2.10579595-7.9103638 4.81958389 4.81681187 7.9112878 1.03210798-4.2430079.44906399.108108c4.79371188 1.16701197 9.82119575-.82882798 12.51557969-4.95818388 2.61861593-4.0129319 2.50219193-9.23260777-.256872-13.11895167l-5.64009586 3.43543191z"/>
    <path fill="rgb(255,255,255)" fill-rule="evenodd" d="M106.41615336 40.47936763c-.55624798.118272-1.05890397.177408-1.51073996.177408-.65881198 0-1.15407597-.158004-1.48301996-.47124-.329868-.31508399-.57287999-.92399997-.72903598-1.82859595-.156156-.90367198-.233772-2.25917994-.233772-4.0674479v-9.66965976c1.59574796-.70778398 3.45298792-1.06075197 5.56987186-1.06075197.347424-1.45529997.521136-3.39847192.521136-5.83228786h-6.09100786v-4.89904788c0-1.29637196-.121968-2.23053594-.36497999-2.79971993-.242088-.57010798-.67636798-1.01270397-1.30191597-1.32686396-.90182397.82513198-2.11688394 1.55231996-3.6442559 2.18156394-1.52737197.62831999-3.05381993 1.02194398-4.5811919 1.17902397v5.66504386H89.3914538c-.486024 2.00138395-.72903599 3.9260759-.72903599 5.77315186 1.63178396 0 2.93277593.23562 3.9048239.70778398v10.78862373c0 3.8909639.68560799 6.66203984 2.05589996 8.3132278 1.37213996 1.65118796 3.47978391 2.47631994 6.32570384 2.47631994 1.52737196 0 3.00299993-.186648 4.42595989-.55994399 1.42295996-.37421999 2.51605194-.85469998 3.28019992-1.44513596 0-1.65026396-.260568-2.90782793-.78170398-3.7726919-.4158.19681199-.90182398.35389198-1.45714797.47123998"/>
    <path fill="rgb(255,255,255)" fill-rule="evenodd" d="M52.1148923 18.02006979c-1.35458396 0-2.62138793.44813998-3.8004119 1.34349596-1.18087197.89627998-2.16955194 2.06051995-2.96788792 3.49271992-.243012.43889998-.74659198 1.89142795-1.50981597 4.35943189.2772-1.27419597.50358-2.39870394.67636799-3.37352392.173712-.97574397.260568-1.74173996.260568-2.29891194 0-1.95056395-.590436-3.22475992-1.76945997-3.8207399-.90274797.51651598-2.37837594.97389597-4.42595989 1.37306396-2.04758394.39824399-4.28643589.59690398-6.71655583.59690398-.45091199.99514798-.67636798 2.48740794-.67636798 4.4777039 1.14575997.12011999 1.96904395.34834798 2.47262394.68653198.50357998.33910799.83344798.83714398.98960397 1.49410796.156156.65603998.234696 1.70015996.234696 3.13420792v4.95541188c0 1.87109995-.096096 3.25525192-.28644 4.1506079-.191268.89535597-.52021198 1.52275196-.98960397 1.88126395-.468468.35851199-1.20581997.57657598-2.21297995.65603998-.242088 1.07553598-.36405599 2.62785594-.36405599 4.65788389 2.39408394-.119196 5.89973986-.18018 10.51696774-.18018 4.2688799 0 7.39199982.060984 9.37120777.18018 0-2.10949195-.15708-3.66273591-.46939199-4.65788389-2.18618395-.158928-3.6784439-.76599598-4.47677989-1.82120395-.79833598-1.05520798-1.19750397-2.87548793-1.19750397-5.46361187v-.71609998c0-1.07461197.156156-2.11041595.46939199-3.10556392.311388-.99514798.71979598-1.81103996 1.22337597-2.44767594.50265599-.63755999.97943997-.95541598 1.43127596-.95541598.69392399 0 1.19657997.308616 1.50889197.92584798.31323599.61723198.48694798 1.58281196.52113598 2.89489193 2.60290794 0 4.4425919-.2772 5.51812787-.83529598-.034188-.437976-.05082-1.13374797-.05082-2.09008795 0-2.74612793.190344-5.43311987.57195598-8.0609758-1.17994797-.95449198-2.46430794-1.43312396-3.8521559-1.43312396"/>
    <path fill="rgb(255,255,255)" fill-rule="evenodd" d="M136.35171509 37.29572606c.13861084.66897583.40748596 1.13005066.80758667 1.38599777.39823913.25595093 1.03210449.40286637 1.8997345.44259644.0702362.35389328.10441589.8639412.10441589 1.53291702 0 1.17810059-.2263794 2.22037125-.67729187 3.12404251-3.36613465.07946778-6.49017334.74659348-9.37120056 2.00508118-.7281189-.31508637-1.24093628-.74751282-1.53569031-1.29729462-.29568482-.5497818-.44259644-1.23815918-.44259644-2.06329345 0-.98313523.1219635-1.9653473.36497498-2.94755936-.72995758 1.80734634-1.57911682 3.14344787-2.55116272 4.00831222-1.59759522 1.45437622-3.7662201 2.18156434-6.50772858 2.18156434-2.49942016 0-4.45183563-.58951188-5.85723877-1.76853943-1.4063263-1.1799469-2.10856628-2.8884201-2.10856628-5.12911988 0-2.31924057.73735046-4.1958847 2.21205902-5.63085937 1.47562408-1.43497086 3.33286285-2.49572182 5.5717163-3.1841011 2.2379303-.68745614 4.90181733-1.26680375 7.99075318-1.7389679 0-1.21783257-.08685302-2.25086594-.25964355-3.09539986-.17463684-.84546089-.4869461-1.54308128-.93785858-2.09286117-.69392395-.82605553-1.57911682-1.23815918-2.65465546-1.23815918-1.14575958 0-2.00508118.55994415-2.577034 1.67983055-.5728836 1.12081337-.96372986 2.70270157-1.17255401 4.74658966-1.3878479 0-2.48925782-.04989624-3.3051529-.14691544-.81588745-.09886932-1.6049881-.3049202-2.369133-.6190815.0692978-1.0228672.10440827-1.82859611.10440827-2.41718292 0-1.53291702-.15615082-3.26356888-.46846771-5.18918419 1.52737427-.66805267 3.3578186-1.1984291 5.49317932-1.5911293 2.13352204-.39362335 4.22545624-.59043503 6.27304077-.59043503 4.47677613 0 7.60081482 1.0025406 9.37120056 3.0066967.7281189.82605553 1.3102417 1.9653473 1.74359131 3.41972351.4342804 1.45437623.65142823 3.47886086.65142823 6.07252694v3.8909645c0 1.49502945.06837463 2.57611466.20788574 3.24324036zm-11.40122986.26518631c.86671448-1.1198883 1.30099487-2.64263916 1.30099487-4.56917953V31.9901173c-2.290596.51097298-3.88726806 1.14945412-4.79001617 1.91545296-.90182495.76691818-1.35273743 1.73989105-1.35273743 2.91799164 0 .82605362.18202973 1.43497085.54608154 1.8285942.3649826.39362717.82421113.58951188 1.38045502.58951188 1.07553864 0 2.04666138-.55994416 2.91522217-1.68075562z"/>
    <g transform="translate(0 17.7129322)">
      <use fill="none" xlink:href="#path-7"/>
      <g mask="url(#mask-8)">
        <path fill="rgb(255,255,255)" fill-rule="evenodd" d="M17.12855678.5198798h10.7775364c.45091247 1.13559597.6763668 2.83852797.6763668 5.1097198-1.73619461-.75767993-3.31531143-1.15499973-4.73827172-1.19288396 1.35366059 1.628088 2.03095246 3.5019598 2.03095246 5.62069225 0 2.53637982-1.09309197 4.5793438-3.28019905 6.13073921-2.18618393 1.55232048-5.3970852 2.32755661-9.63177681 2.32755661-1.14483547 0-2.23792744-.05636405-3.2792759-.17001724-.45091152.34003258-.67729187.71979714-.67729187 1.13559723 0 .71887207.5035801 1.17255592 1.50981617 1.36197472 1.00623608.1894207 2.65557576.30214882 4.94617176.34003257h2.29152108c2.08084678.03880883 3.84383964.23746872 5.2834301.59690476 1.44051742.35943603 2.61122512 1.069067 3.51397323 2.1288948.90367127 1.05982781 1.35458374 2.59181977 1.35458374 4.5978241 0 2.45968819-.6856079 4.59874916-2.0577488 6.41533089-1.37029075 1.81658554-3.34857558 3.22660828-5.93485069 4.22914886q-3.87802887 1.50519562-9.13651275 1.50519562c-7.18502331 0-10.77661133-2.13906097-10.77661133-6.41625595 0-1.2862053.312312-2.41163826.93601197-3.37721825.62554795-.96465683 1.5449279-1.69369316 2.7599879-2.18526077-1.35365988-1.17347908-2.03095187-2.82004738-2.03095187-4.93970299 0-1.55139732.31231201-2.84776878.9378599-3.88819313.62462401-1.04042434 1.45714783-1.97735977 2.49849581-2.80988311C2.1523655 15.5635238.6767376 12.99018339.6767376 9.32005552c0-3.06675577 1.01547599-5.38414788 3.04550385-6.9549477C5.75226932.7943078 8.62498527.00890782 12.33854155.00890782c1.77038384 0 3.3670559.17094 4.79001523.51097196zm-3.4363556 14.02262407c-1.0413475 0-1.84799956-.51189613-2.4208803-1.53291607-.57195569-1.02194404-.8593197-2.5169754-.8593197-4.48509598 0-3.36798048.9203043-5.05150795 2.75998784-5.05150795 1.04042434 0 1.84799957.51004792 2.42087936 1.53199149.5728798 1.02194404.85839653 2.51605224.85839653 4.48417234 0 3.36890411-.91938019 5.05335617-2.75906372 5.05335617zm1.30191613 16.575634c1.28435898.03788567 2.22961044.09517288 2.83667946.1709404.60799217.07576943 1.03303146.2171402 1.27604485.42596436.24301147.2078991.36497879.51929092.36497879.93693924 0 1.0967865-.59043503 1.96812057-1.77038384 2.61122131-1.1799488.64310455-2.82928848.96465683-4.94617176.96465683-1.90898418 0-3.26264381-.30214691-4.06097984-.90829086-.79741144-.6052208-1.19750357-1.58927918-1.19750357-2.95217896 0-.34003448.04342794-.64310837.13120794-.90737152.08593226-.26611137.23284817-.5682602.44167137-.90921593 1.45714856.30307198 3.7652998.49156762 6.9244566.56733513z"/>
      </g>
    </g>
    <path fill="rgb(255,255,255)" fill-rule="evenodd" d="M183.97708104 17.0555062l-4.81865988-7.9122118-1.03025997 4.2430079-.449064-.108108c-.91106397-.22176-1.83136795-.32801999-2.74150792-.32801999-3.8789519 0-7.59343182 1.94224795-9.77499576 5.28620387-2.61861594 4.0138559-2.50126794 9.23353177.256872 13.11987567l5.64009585-3.43635591c-1.35273596-1.57634396-1.62254396-3.8438399-.62369998-5.71309186 1.09493997-2.04850795 3.43265991-3.09170392 5.69276386-2.54839194l.44813999.109956-.511896 2.10579595 7.91221181-4.81865988z"/>
    <path fill="rgb(147,184,125)" fill-rule="evenodd" d="M65.2474289 19.38648152c2.16954803-1.06167602 4.62461852-1.59205246 7.36705016-1.59205246 4.6163025 0 8.12195588 1.23815918 10.51696778 3.71540451 2.39408111 2.4753952 3.59159088 5.75744248 3.59159088 9.84521866 0 4.59875107-1.29267883 8.16631317-3.87895203 10.70084381-2.58535766 2.53545761-6.15106964 3.80318451-10.69807434 3.80318451-4.58211517 0-8.05265808-1.1891899-10.41347885-3.5675621-2.35897446-2.37745667-3.53984451-5.68907166-3.53984451-9.93392563 0-3.22291183.63386535-5.9256115 1.9006691-8.10717583 1.26680374-2.18156433 2.98544311-3.8031845 5.1540718-4.86393547zm7.88726043 21.93206025c1.14575958 0 2.04758453-.75582886 2.70732117-2.26934052.65973663-1.51351166.98867798-3.42988968.98867798-5.74913025 0-2.43566322-.23377228-4.49987793-.70131684-6.18987465-.46939087-1.68999672-1.0847702-2.95772362-1.84892273-3.8031845-.7641449-.84453583-1.57911682-1.26680375-2.44675445-1.26680375-1.21505738 0-2.14367676.75583267-2.78585816 2.26934433-.6421814 1.51351166-.96372985 3.44836807-.96372985 5.80734062 0 3.22291184.4342804 5.89604187 1.30284118 8.01847077.86671448 2.12242508 2.11688233 3.18317795 3.7477417 3.18317795z"/>
    <path fill="rgb(147,184,125)" fill-rule="evenodd" d="M79.06972724 14.49547187c1.82859596 0 3.31253992-1.48209596 3.31253992-3.31161592 0-1.82859595-1.48394396-3.31161591-3.31253992-3.31161591-1.82859595 0-3.31161592 1.48301996-3.31161592 3.31161591 0 1.82951996 1.48301997 3.31161592 3.31161592 3.31161592"/>
    <path fill="rgb(147,184,125)" fill-rule="evenodd" d="M65.84590157 14.49547187c1.82859595 0 3.31253992-1.48209596 3.31253992-3.31161592 0-1.82859595-1.48394397-3.31161591-3.31253992-3.31161591-1.82859596 0-3.31161592 1.48301996-3.31161592 3.31161591 0 1.82951996 1.48301996 3.31161592 3.31161592 3.31161592"/>
  </g>
</svg>
