<?xml version="1.0" encoding="UTF-8"?>
<svg width="30px" height="30px" viewBox="0 0 30 30" version="1.1" xmlns="http://www.w3.org/2000/svg" xmlns:xlink="http://www.w3.org/1999/xlink">
    <title>Artboard</title>
    <g id="Artboard" stroke="none" stroke-width="1" fill="none" fill-rule="evenodd">
        <g id="logout" transform="translate(5.000000, 5.000000)" fill="#4856A2" fill-rule="nonzero">
            <path d="M19.1952011,9.28830285 L11.3519502,9.28830285 C11.0101506,9.28830285 10.7327502,9.01090247 10.7327502,8.66910281 C10.7327502,8.32730319 11.0101506,8.04990278 11.3519502,8.04990278 L19.1952011,8.04990278 C19.5370007,8.04990278 19.8144011,8.32730319 19.8144011,8.66910281 C19.8144011,9.01090247 19.5370007,9.28830285 19.1952011,9.28830285 Z" id="Path"></path>
            <path d="M16.0992009,12.384303 C15.9406216,12.384303 15.7821935,12.3239855 15.6615583,12.2027456 C15.4196833,11.9607194 15.4196833,11.5685796 15.6615583,11.3267046 L18.3200671,8.66834696 L15.6615583,6.00983824 C15.4196833,5.76796323 15.4196833,5.37582334 15.6615583,5.13394833 C15.9035845,4.89192215 16.2957244,4.89192215 16.5375994,5.13394833 L19.6335995,8.2299485 C19.8754746,8.47182351 19.8754746,8.8639634 19.6335995,9.10583841 L16.5375994,12.2018386 C16.4162083,12.3239855 16.2577802,12.384303 16.0992009,12.384303 L16.0992009,12.384303 Z" id="Path"></path>
            <path d="M6.60485077,19.8147034 C6.42813081,19.8147034 6.2604812,19.7899113 6.09298276,19.7379082 L1.12441649,18.082576 C0.448375826,17.8464456 0,17.2165123 0,16.5123537 L0,1.65155282 C0,0.740893391 0.740591067,0.000302343767 1.65125049,0.000302343767 C1.82781925,0.000302343767 1.99546886,0.025094552 2.16311847,0.0770976799 L7.13153361,1.73242979 C7.80772544,1.96856029 8.25595007,2.5984935 8.25595007,3.30265215 L8.25595007,18.163453 C8.25595007,19.0741124 7.5155102,19.8147034 6.60485077,19.8147034 Z M1.65125049,1.23870239 C1.4241903,1.23870239 1.23840007,1.42449267 1.23840007,1.65155282 L1.23840007,16.5123537 C1.23840007,16.6881666 1.3564653,16.8515834 1.5248708,16.9102381 L6.47015661,18.5581627 C6.50568202,18.5696518 6.55194059,18.5763034 6.60485077,18.5763034 C6.83191092,18.5763034 7.01755,18.3905131 7.01755,18.163453 L7.01755,3.30265215 C7.01755,3.12683924 6.89948476,2.96342244 6.73107931,2.90476775 L1.78579345,1.25684302 C1.75026805,1.245354 1.70400947,1.23870239 1.65125049,1.23870239 Z" id="Shape"></path>
            <path d="M12.5903503,6.6051531 C12.2485507,6.6051531 11.9711503,6.32775268 11.9711503,5.98595306 L11.9711503,2.27075285 C11.9711503,1.70189305 11.5081108,1.23870241 10.939251,1.23870241 L1.65125049,1.23870241 C1.30945087,1.23870241 1.03205046,0.961302017 1.03205046,0.619502379 C1.03205046,0.27770274 1.30945087,0.000302343767 1.65125049,0.000302343767 L10.939251,0.000302343767 C12.1917101,0.000302343767 13.2095503,1.01829381 13.2095503,2.27075285 L13.2095503,5.98595306 C13.2095503,6.32775268 12.9321499,6.6051531 12.5903503,6.6051531 Z" id="Path"></path>
            <path d="M10.939251,17.3379033 L7.63675003,17.3379033 C7.29495041,17.3379033 7.01755,17.0605029 7.01755,16.7187033 C7.01755,16.3769036 7.29495041,16.0995032 7.63675003,16.0995032 L10.939251,16.0995032 C11.5081108,16.0995032 11.9711503,15.6363126 11.9711503,15.0674528 L11.9711503,11.3522526 C11.9711503,11.0104529 12.2485507,10.7330526 12.5903503,10.7330526 C12.9321499,10.7330526 13.2095503,11.0104529 13.2095503,11.3522526 L13.2095503,15.0674528 C13.2095503,16.3199119 12.1917101,17.3379033 10.939251,17.3379033 L10.939251,17.3379033 Z" id="Path"></path>
        </g>
    </g>
</svg>