<?xml version="1.0" encoding="utf-8"?>
<!-- Generator: Adobe Illustrator 24.1.1, SVG Export Plug-In . SVG Version: 6.00 Build 0)  -->
<svg version="1.1" id="Layer_1" xmlns="http://www.w3.org/2000/svg" xmlns:xlink="http://www.w3.org/1999/xlink" x="0px" y="0px"
	 viewBox="0 0 167 49" style="enable-background:new 0 0 167 49;" xml:space="preserve">
<style type="text/css">
	.st0{fill:#4856A2;}
	.st1{fill:none;}
	.st2{clip-path:url(#SVGID_2_);}
	.st3{fill:#93B87D;}
</style>
<g id="Group_24" transform="translate(0 0)">
	<path id="Fill_1" class="st0" d="M127.4,34.9c-1.5,0-2.8-1.2-2.8-2.8c0-1,0.5-1.9,1.3-2.4c1.3-0.8,3-0.3,3.8,1
		c0.7,1.3,0.3,2.9-0.9,3.7C128.4,34.7,127.9,34.9,127.4,34.9z M127.4,30.1c-1.1,0-2,0.9-2,2c0,1.1,0.9,2,2,2s2-0.9,2-2
		c0-0.4-0.1-0.7-0.3-1C128.8,30.5,128.1,30.1,127.4,30.1z"/>
	<path id="Fill_3" class="st0" d="M146.8,38.7h-19.4c-3.7,0-6.6-3-6.6-6.6c0-1.1,0.3-2.2,0.8-3.1l8.9-17.1c0.6-1.1,1.4-2,2.4-2.6
		l13.2-8c3.1-1.9,7.2-0.9,9.1,2.2l10.5,17.3c1.9,3.1,0.9,7.2-2.2,9.1l-13.2,8C149.2,38.4,148,38.7,146.8,38.7z M149.5,0.9
		c-1.1,0-2.1,0.3-3,0.9l-13.2,8c-0.9,0.6-1.7,1.4-2.2,2.3l-8.9,17.2c-1.5,2.8-0.5,6.4,2.4,7.9c0.9,0.5,1.8,0.7,2.8,0.7h19.4
		c1.1,0,2.1-0.3,3-0.9l13.2-8c2.8-1.7,3.6-5.3,2-8.1L154.5,3.8C153.4,2,151.5,0.9,149.5,0.9z"/>
	<path id="Fill_5" class="st0" d="M149.4,17.9c1.5,1.8,1.3,4.5-0.5,6c-1,0.9-2.4,1.2-3.8,0.9l-0.4-0.1l0.4-1.8l-6.6,4l4,6.6l0.9-3.5
		l0.4,0.1c5.2,1.3,10.5-1.9,11.7-7.1c0.7-2.7,0.1-5.6-1.5-7.9L149.4,17.9z"/>
	<path id="Fill_7" class="st0" d="M89,33.9c-0.4,0.1-0.8,0.1-1.3,0.1c-0.4,0-0.9-0.1-1.2-0.4c-0.4-0.4-0.6-1-0.6-1.5
		c-0.2-1.1-0.2-2.3-0.2-3.4v-8.1c1.5-0.6,3-0.9,4.6-0.9c0.3-1.6,0.5-3.2,0.4-4.9h-5.1v-4.1c0-0.8-0.1-1.6-0.3-2.3
		c-0.2-0.5-0.6-0.9-1.1-1.1c-0.9,0.8-1.9,1.4-3,1.8c-1.2,0.5-2.5,0.8-3.8,1V15h-2.6c-0.4,1.6-0.6,3.2-0.6,4.8c1.1,0,2.2,0.2,3.3,0.6
		v9c0,3.2,0.6,5.6,1.7,6.9c1.3,1.5,3.3,2.2,5.3,2.1c1.2,0,2.5-0.2,3.7-0.5c1-0.2,1.9-0.6,2.7-1.2c0.1-1.1-0.2-2.2-0.7-3.1
		C89.9,33.7,89.5,33.8,89,33.9"/>
	<path id="Fill_9" class="st0" d="M43.8,15.2c-1.2,0-2.3,0.4-3.2,1.1c-1,0.8-1.9,1.8-2.5,2.9c-0.5,1.2-0.9,2.4-1.3,3.6
		c0.2-1.1,0.4-2,0.6-2.8c0.1-0.6,0.2-1.3,0.2-1.9c0-1.6-0.5-2.7-1.5-3.2c-1.2,0.6-2.4,0.9-3.7,1.1c-1.8,0.3-3.7,0.5-5.6,0.5
		c-0.4,1.2-0.6,2.5-0.6,3.7c0.7,0,1.4,0.2,2.1,0.6c0.4,0.3,0.7,0.7,0.8,1.2c0.2,0.9,0.2,1.7,0.2,2.6v4.1c0,1.2,0,2.3-0.2,3.5
		c-0.1,0.6-0.4,1.2-0.8,1.6c-0.6,0.3-1.2,0.5-1.9,0.5c-0.2,1.3-0.3,2.6-0.3,3.9c2-0.1,4.9-0.1,8.8-0.2c3.6,0,6.2,0.1,7.8,0.2
		c0.1-1.3-0.1-2.6-0.4-3.9c-1.8-0.1-3.1-0.6-3.7-1.5s-1-2.4-1-4.6v-0.6c0-0.9,0.1-1.8,0.4-2.6c0.2-0.7,0.6-1.4,1-2
		c0.3-0.4,0.7-0.7,1.2-0.8c0.5,0,1,0.3,1.3,0.8c0.3,0.8,0.5,1.6,0.4,2.4c1.6,0.1,3.1-0.1,4.6-0.7c0-0.4,0-0.9,0-1.7
		c0-2.2,0.2-4.5,0.5-6.7C46.1,15.6,45,15.2,43.8,15.2"/>
	<path id="Fill_11" class="st0" d="M108,38.3L108,38.3c-0.5-0.2-1-0.6-1.3-1.1c-0.3-0.5-0.4-1.1-0.4-1.7c0-0.8,0.1-1.7,0.3-2.5
		c-0.4,1.3-1.2,2.4-2.1,3.3c-1.5,1.3-3.4,1.9-5.4,1.8c-1.8,0.1-3.5-0.4-4.9-1.5c-1.2-1.1-1.9-2.7-1.8-4.3c-0.1-1.8,0.6-3.5,1.8-4.7
		c1.3-1.2,2.9-2.2,4.6-2.7c2.2-0.6,4.4-1.1,6.7-1.4c0-0.9-0.1-1.7-0.2-2.6c-0.1-0.6-0.4-1.2-0.8-1.7c-0.5-0.7-1.4-1.1-2.2-1
		c-0.9,0-1.8,0.5-2.1,1.4c-0.6,1.2-0.9,2.6-1,4c-0.9,0-1.8,0-2.8-0.1c-0.7-0.1-1.3-0.3-2-0.5c0.1-0.8,0.1-1.5,0.1-2
		c0-1.4-0.1-2.9-0.4-4.3c1.5-0.6,3-1.1,4.6-1.3c1.7-0.3,3.5-0.5,5.2-0.5c3.7,0,6.3,0.8,7.8,2.5c0.7,0.8,1.2,1.8,1.5,2.8
		c0.4,1.7,0.6,3.4,0.5,5.1v3.2c0,0.9,0,1.8,0.2,2.7c0.1,0.5,0.3,0.9,0.7,1.2c0.5,0.3,1,0.4,1.6,0.4c0.1,0.4,0.1,0.8,0.1,1.3
		c0,0.9-0.2,1.8-0.6,2.6C113.1,36.7,110.4,37.3,108,38.3L108,38.3z M105.6,26.8c-1.4,0.2-2.8,0.8-4,1.6c-0.7,0.6-1.1,1.5-1.1,2.4
		c0,0.5,0.1,1.1,0.5,1.5c0.3,0.3,0.7,0.5,1.2,0.5c1-0.1,1.9-0.6,2.4-1.4c0.8-1.1,1.2-2.5,1.1-3.8V26.8z"/>
	<g id="Group_15" transform="translate(0 14.761)">
		<path id="Clip_14-2" class="st1" d="M0.4,0.2h23.8v33.9H0.4V0.2z"/>
		<g>
			<defs>
				<rect id="SVGID_1_" x="0.4" y="0.2" width="23.8" height="33.9"/>
			</defs>
			<clipPath id="SVGID_2_">
				<use xlink:href="#SVGID_1_"  style="overflow:visible;"/>
			</clipPath>
			<g id="Group_15-2" class="st2">
				<path id="Fill_13" class="st0" d="M9.3,34.1c-3,0-5.2-0.5-6.7-1.3c-1.4-0.8-2.3-2.4-2.2-4c0-1,0.3-2,0.8-2.8
					c0.6-0.8,1.4-1.5,2.3-1.8c-1.2-1-1.8-2.6-1.7-4.1c0-1.1,0.2-2.3,0.8-3.2c0.5-0.9,1.3-1.7,2.1-2.3c-1.2-0.5-2.1-1.4-2.8-2.5
					c-0.6-1.2-1-2.5-0.9-3.9C0.8,5.7,1.7,3.6,3.5,2.2c1.7-1.3,4.1-2,7.2-2c1.3,0,2.7,0.1,4,0.4h9c0.4,1.4,0.6,2.8,0.6,4.3
					c-1.2-0.6-2.6-0.9-3.9-1c1.1,1.3,1.7,3,1.7,4.7c0,2.1-1,4-2.7,5.1c-1.8,1.3-4.5,1.9-8,1.9c-0.9,0-1.8,0-2.7-0.1
					c-0.3,0.2-0.5,0.6-0.6,0.9c0,0.6,0.4,1,1.3,1.1c1.4,0.2,2.7,0.3,4.1,0.3h1.9c1.5,0,3,0.2,4.4,0.5c1.1,0.3,2.2,0.9,2.9,1.8
					c0.8,1.1,1.2,2.5,1.1,3.8c0,1.9-0.6,3.8-1.7,5.3c-1.3,1.6-3,2.8-4.9,3.5C14.5,33.7,11.9,34.1,9.3,34.1z M7.1,25.6
					c-0.2,0.2-0.3,0.5-0.4,0.8c-0.1,0.2-0.1,0.5-0.1,0.8c-0.1,0.9,0.3,1.8,1,2.5c1,0.6,2.2,0.9,3.4,0.8c1.4,0.1,2.8-0.2,4.1-0.8
					c0.9-0.4,1.5-1.2,1.5-2.2c0-0.3-0.1-0.6-0.3-0.8c-0.3-0.2-0.7-0.3-1.1-0.4c-0.5-0.1-1.3-0.1-2.4-0.1C10.9,26.1,9,26,7.1,25.6z
					 M11.3,3.1C9.8,3.1,9,4.5,9,7.3C9,8.6,9.2,9.9,9.8,11c0.4,0.8,1.2,1.3,2,1.3c1.5,0,2.3-1.4,2.3-4.2c0.1-1.3-0.2-2.6-0.7-3.7
					C13,3.6,12.2,3.1,11.3,3.1z"/>
			</g>
		</g>
	</g>
	<path id="Fill_16" class="st3" d="M153.7,14.4l-4-6.6l-0.9,3.5l-0.4-0.1c-5.2-1.3-10.5,1.9-11.7,7.1c-0.7,2.7-0.1,5.6,1.5,7.9
		l4.7-2.9c-1.5-1.8-1.3-4.5,0.5-6c1-0.9,2.4-1.2,3.8-0.9l0.4,0.1l-0.4,1.8L153.7,14.4z"/>
	<path id="Fill_18" class="st3" d="M60.5,38.4c-3.8,0-6.7-1-8.7-3c-2-2-2.9-4.8-2.9-8.3c-0.1-2.4,0.5-4.7,1.6-6.8
		c1-1.8,2.5-3.2,4.3-4.1c1.9-0.9,4-1.4,6.1-1.3c3.8,0,6.8,1,8.8,3.1c2.1,2.2,3.1,5.2,3,8.2c0,3.8-1.1,6.8-3.2,8.9
		C67.3,37.3,64.3,38.4,60.5,38.4z M60.2,18.5c-1,0-1.8,0.6-2.3,1.9c-0.6,1.5-0.9,3.2-0.8,4.8c-0.1,2.3,0.3,4.5,1.1,6.7
		c0.7,1.8,1.8,2.7,3.1,2.7c1,0,1.7-0.6,2.3-1.9c0.6-1.5,0.9-3.2,0.8-4.8c0-1.7-0.2-3.5-0.6-5.2c-0.3-1.2-0.8-2.2-1.5-3.2
		C61.8,19,61,18.6,60.2,18.5z"/>
	<path id="Fill_20" class="st3" d="M66.3,12.3c1.5,0,2.8-1.2,2.8-2.8s-1.2-2.8-2.8-2.8S63.5,8,63.5,9.5c0,0,0,0,0,0
		C63.5,11,64.7,12.3,66.3,12.3"/>
	<path id="Fill_22" class="st3" d="M55.2,12.3c1.5,0,2.8-1.2,2.8-2.8s-1.2-2.8-2.8-2.8S52.5,8,52.5,9.5c0,0,0,0,0,0
		C52.5,11,53.7,12.3,55.2,12.3"/>
</g>
</svg>
