<?xml version="1.0" encoding="utf-8"?>
<!-- Generator: Adobe Illustrator 24.1.3, SVG Export Plug-In . SVG Version: 6.00 Build 0)  -->
<svg version="1.1" id="Capa_1" xmlns="http://www.w3.org/2000/svg" xmlns:xlink="http://www.w3.org/1999/xlink" x="0px" y="0px"
	 viewBox="0 0 26 26" style="enable-background:new 0 0 26 26;" xml:space="preserve">
<style type="text/css">
	.st0{fill-rule:evenodd;clip-rule:evenodd;fill:#4856A2;}
</style>
<path class="st0" d="M17.8,14c0.7,0.3,1.4,0.7,1.9,1.2c0.8,0.7,1.3,1.7,1.3,2.8v1.2c0,1-0.8,1.9-1.9,1.9H6.9c-1,0-1.9-0.8-1.9-1.9
	V18c0-1.1,0.5-2.1,1.3-2.8c0.7-0.6,1.9-1.4,3.9-1.9c-1.1-0.8-1.8-2.2-1.8-3.7C8.4,7.1,10.4,5,13,5s4.6,2.1,4.6,4.6s-2.1,4.6-4.6,4.6
	c-3.4,0-5.3,1.3-5.9,1.8c-0.5,0.5-0.8,1.2-0.8,1.9v1.2c0,0.3,0.3,0.6,0.6,0.6h12.2c0.3,0,0.6-0.3,0.6-0.6V18c0-0.7-0.3-1.4-0.8-1.9
	c-0.4-0.4-1-0.7-1.6-1C17,15,16.9,14.6,17,14.3S17.5,13.8,17.8,14z M13,6.2c-1.9,0-3.4,1.5-3.4,3.4S11.1,13,13,13s3.4-1.5,3.4-3.4
	S14.9,6.2,13,6.2z"/>
</svg>
