<?xml version="1.0" encoding="utf-8"?>
<!-- Generator: Adobe Illustrator 24.1.3, SVG Export Plug-In . SVG Version: 6.00 Build 0)  -->
<svg version="1.1" id="Icono_Buscar_Activo" xmlns="http://www.w3.org/2000/svg" xmlns:xlink="http://www.w3.org/1999/xlink"
	 x="0px" y="0px" viewBox="0 0 28 26" style="enable-background:new 0 0 28 26;" xml:space="preserve">
<style type="text/css">
	.st0{fill:#4856A2;}
</style>
<path id="buscar" class="st0" d="M20.8,20.3L20.8,20.3L16.1,16c-1.1,0.8-2.5,1.2-3.9,1.2c-3.5,0-6.3-2.6-6.3-5.8s2.8-5.8,6.3-5.8
	s6.3,2.6,6.3,5.8c0,1.3-0.5,2.6-1.3,3.6l4.6,4.2c0.3,0.2,0.3,0.7,0.1,0.9c0,0,0,0-0.1,0.1C21.5,20.5,21.1,20.5,20.8,20.3z M7.5,11.4
	c0.1,2.5,2.2,4.5,4.8,4.4c2.5,0.1,4.7-1.9,4.8-4.4c-0.1-2.5-2.2-4.5-4.8-4.4C9.7,6.9,7.6,8.9,7.5,11.4z M8.8,10.1c0-1.1,1-2,2.1-2
	c0.4,0,0.7,0.3,0.8,0.7c0,0.4-0.3,0.7-0.7,0.7l-0.1,0c-0.3,0-0.6,0.2-0.6,0.5l0,0.1c0,0.4-0.4,0.7-0.8,0.7
	C9.1,10.8,8.8,10.5,8.8,10.1z"/>
</svg>
