<?xml version="1.0" encoding="UTF-8"?>
<svg width="34px" height="32px" viewBox="0 0 34 32" version="1.1" xmlns="http://www.w3.org/2000/svg" xmlns:xlink="http://www.w3.org/1999/xlink">
    <title>sobre-la-marca</title>
    <g id="Page-1" stroke="none" stroke-width="1" fill="none" fill-rule="evenodd">
        <g id="sobre-la-marca" fill="#4856A2" fill-rule="nonzero">
            <path d="M15.0952846,8.5384065 C15.1836748,8.61326829 15.2954797,8.65398374 15.4105366,8.65398374 C15.4243252,8.65398374 15.4382439,8.65339837 15.4520976,8.65222764 C15.5813984,8.64117073 15.7010081,8.57905691 15.7843902,8.47954472 L18.8965854,4.76611382 C19.0696585,4.55960976 19.0425366,4.25196748 18.8360325,4.07895935 C18.6296585,3.90582114 18.3219512,3.93294309 18.148878,4.1395122 L15.3515447,7.47707317 L14.071935,6.39336585 C13.8664065,6.21918699 13.5585041,6.24474797 13.3844553,6.45034146 C13.2103415,6.65593496 13.2359024,6.96377236 13.4414959,7.13782114 L15.0952846,8.5384065 Z" id="Path"></path>
            <path d="M16.329561,12.9934959 C17.9945366,12.9934959 19.6593821,12.36 20.9268943,11.0930081 C22.1542114,9.86627642 22.8301138,8.23473171 22.8301138,6.49899187 C22.8301138,4.76331707 22.1542764,3.13138211 20.9268943,1.90354472 C19.5960325,0.573203252 17.7573333,-0.115317073 15.8830569,0.0159349593 C14.0005203,0.147252033 12.2710894,1.08364228 11.1383415,2.58504065 C10.9761301,2.80013008 11.0189268,3.10595122 11.2339512,3.26822764 C11.4491707,3.43056911 11.7549268,3.38770732 11.9172033,3.17261789 C12.8798699,1.89665041 14.3501138,1.10081301 15.9510244,0.989203252 C17.5434146,0.878439024 19.1061463,1.46289431 20.2370732,2.59343089 C21.2801301,3.63681301 21.8545041,5.02386992 21.8545041,6.49899187 C21.8545041,7.97404878 21.2801301,9.36058537 20.2372683,10.4030569 C18.0825366,12.556878 14.5767805,12.556748 12.4220488,10.4030569 C11.0096911,8.99121951 10.4696585,6.91876423 11.012748,4.99427642 C11.0859187,4.73502439 10.9350894,4.46549593 10.6757724,4.3923252 C10.4169106,4.31921951 10.1469919,4.47004878 10.0738211,4.72930081 C9.43486179,6.99336585 10.070374,9.43180488 11.7323577,11.0930081 C12.9998049,12.360065 14.6647154,12.9934959 16.329561,12.9934959 L16.329561,12.9934959 Z" id="Path"></path>
            <path d="M31.3170732,24.1910894 C31.155122,24.0987317 30.9879675,24.0037724 30.8162602,23.9010081 L29.540813,23.1361301 C30.1339837,22.5058862 30.5782114,21.7403577 30.7531707,20.9735285 C30.8065041,20.7419837 30.8338211,20.5143415 30.8338211,20.2977561 L30.8338211,17.0691382 C30.8338211,15.6005203 29.7287805,14.2749919 28.017561,13.692878 C26.521626,13.1842602 25.036748,13.4203577 24.2373984,14.2736911 C23.4178862,14.4180813 22.2686179,15.0678374 22.3076423,17.5842602 C22.3082927,17.606374 22.3082927,17.6245854 22.3082927,17.6388943 L22.3082927,20.2977561 C22.3082927,20.5143415 22.3356098,20.7419837 22.3889431,20.9715772 C22.563252,21.7390569 23.0068293,22.5058862 23.6013008,23.1367805 L22.3473171,23.8886504 C22.3382114,23.8932033 22.3291057,23.8990569 22.32,23.9042602 C22.1508943,24.0057236 21.9850407,24.1000325 21.8250407,24.1910894 C21.3456911,24.4636098 20.8786992,24.7283252 20.518374,25.0990569 L19.6195122,24.5598699 C20.2133333,23.9289756 20.657561,23.1634472 20.8325203,22.3972683 C20.8845528,22.1689756 20.9112195,21.9413333 20.9112195,21.7208455 L20.9112195,20.2860488 C20.9112195,20.2857236 20.9112846,20.2853984 20.9112846,20.2850732 L20.9112846,18.4919675 C20.9112846,17.023935 19.8067642,15.699187 18.0973008,15.1170732 C16.601626,14.6076748 15.1160976,14.8433171 14.316748,15.6963252 C13.4967154,15.8403252 12.347122,16.4900163 12.3869268,19.0061789 C12.3873171,19.028878 12.3876423,19.0474797 12.3876423,19.0614634 L12.3876423,19.6805203 L12.3876423,20.561561 L12.3876423,21.7208455 C12.3876423,21.9309268 12.4136585,22.1572683 12.4663415,22.3972683 C12.6413008,23.1634472 13.0855285,23.9289756 13.68,24.5598699 L12.782439,25.0990569 C12.4214634,24.7283252 11.9544715,24.4629593 11.4744715,24.190439 C11.3125203,24.0980813 11.1453659,24.0037724 10.9743089,23.9010081 L10.9613008,23.8932033 C10.96,23.8924878 10.9587642,23.8916423 10.9574634,23.8909268 L9.69860163,23.1367154 C10.2924878,22.5061463 10.7365854,21.7406179 10.9115447,20.9735935 C10.9639024,20.7469919 10.990439,20.5196748 10.990439,20.2980163 L10.990439,18.8605528 L10.990439,18.3131707 L10.990439,17.0692683 C10.990439,15.6009756 9.88578862,14.2759675 8.17613008,13.6936585 C6.68013008,13.184065 5.19401626,13.4199675 4.3940813,14.273626 C3.57463415,14.4176911 2.42621138,15.0674472 2.4660813,17.5833496 C2.46647154,17.6061138 2.46679675,17.6247154 2.46679675,17.6386992 L2.46679675,18.256065 L2.46679675,19.1369756 L2.46679675,20.2980163 C2.46679675,20.5196748 2.49333333,20.7469268 2.54536585,20.9722927 C2.72052033,21.7399675 3.16468293,22.5057561 3.75843902,23.1363902 L2.4824065,23.9009431 C2.31160976,24.0033821 2.14465041,24.0982764 1.98308943,24.1900488 C0.963317073,24.769561 -1.0658141e-14,25.3169431 -1.0658141e-14,26.9122602 L-1.0658141e-14,29.7779512 C-1.0658141e-14,29.875122 -1.0658141e-14,30.1708618 0.213528455,30.3806179 C0.392195122,30.5560976 0.610471545,30.5752195 0.776195122,30.5752195 C0.800780488,30.5752195 0.824195122,30.5748293 0.846113821,30.574439 C0.869333333,30.5740488 0.893658537,30.5735285 0.919154472,30.5735285 L5.73060163,30.5735285 C5.73092683,30.5735285 5.73125203,30.5735935 5.73157724,30.5735935 C5.73190244,30.5735935 5.73222764,30.5735285 5.73255285,30.5735285 L6.72813008,30.5735285 L6.72839024,30.5735285 L7.72104065,30.5735285 C7.72130081,30.5735285 7.72156098,30.5735935 7.72182114,30.5735935 C7.7220813,30.5735935 7.72234146,30.5735285 7.72260163,30.5735285 L9.92052033,30.5735285 L9.92052033,31.2005203 C9.92052033,31.2980813 9.92052033,31.5946667 10.1351545,31.804748 C10.3140163,31.9803577 10.5319024,31.9998699 10.6977561,31.9998699 C10.7224715,31.9998699 10.7458862,31.9992195 10.768,31.9992195 C10.7907642,31.9985691 10.8148293,31.9979187 10.8401951,31.9979187 L11.4021463,31.9979187 C11.6714146,31.9979187 11.8899512,31.7793821 11.8899512,31.5101138 C11.8899512,31.2408455 11.6714146,31.0223089 11.4021463,31.0223089 L10.8961301,31.0223089 L10.8961301,30.5735285 L10.8961301,29.5979187 L10.8961301,28.3348293 C10.8961301,27.3481626 11.3266992,27.0645854 12.3875122,26.4629593 C12.4037724,26.4538537 12.4200325,26.4440976 12.4369431,26.4349919 C12.5045854,26.3966179 12.572878,26.3569431 12.643122,26.3166179 L13.4567805,26.8434472 L14.2951545,27.3865366 C14.3023089,27.390439 14.3094634,27.3949919 14.3166179,27.3988943 C14.3751545,27.4327154 14.4265366,27.4684878 14.4766179,27.5023089 C14.5787317,27.5719024 14.7738537,27.7052358 15.0099512,27.7052358 C15.1075122,27.7052358 15.2122276,27.6824715 15.3201951,27.6232846 L15.387187,27.8860488 L14.4362927,29.9458862 C14.4356423,29.947187 14.4349919,29.9491382 14.4343415,29.950439 C14.3530407,30.1182439 14.3660488,30.3036098 14.4668618,30.4564553 L14.7992195,31.0223089 L13.6551545,31.0223089 C13.3858862,31.0223089 13.1673496,31.2408455 13.1673496,31.5101138 C13.1673496,31.7793821 13.3858862,31.9979187 13.6551545,31.9979187 L15.651252,31.9979187 L15.6525528,31.9979187 L22.4590569,31.9979187 C22.4844228,31.9979187 22.5084878,31.9985691 22.531252,31.9992195 C22.5533659,31.9992195 22.5767805,31.9998699 22.6014959,31.9998699 C22.768,31.9998699 22.9865366,31.9803577 23.1660488,31.804748 C23.3800325,31.5946667 23.3800325,31.2980813 23.3800325,31.2005203 L23.3800325,30.5735285 L27.5634472,30.5735285 L27.564748,30.5735285 L32.3816585,30.5735285 C32.406374,30.5735285 32.4310894,30.5741789 32.4538537,30.5741789 C32.4759675,30.5748293 32.4993821,30.5754797 32.5240976,30.5754797 C32.6899512,30.5754797 32.9078374,30.5559675 33.0866992,30.3803577 C33.3006829,30.1702764 33.3006829,29.8749919 33.3006829,29.7780813 L33.3006829,26.9123902 C33.3006829,25.3175935 32.337561,24.7699512 31.3170732,24.1910894 L31.3170732,24.1910894 Z M9.80123577,24.3350244 L8.56110569,25.1370407 C8.5099187,25.1673496 8.46439024,25.196748 8.424,25.2238049 L8.15739837,24.9413984 C8.15291057,24.9362602 8.14803252,24.9314472 8.14334959,24.9265041 L7.69892683,24.4557398 C7.74686179,24.4396748 7.79538211,24.4225041 7.84474797,24.4040325 C8.22211382,24.2634797 8.58855285,24.060878 8.93034146,23.8132033 L9.80123577,24.3350244 Z M4.6862439,15.2183415 C4.82204878,15.206374 4.94666667,15.1381463 5.02985366,15.0301789 C5.52500813,14.3877073 6.68943089,14.2178862 7.86165854,14.6171057 C8.85489431,14.9554472 10.0148293,15.8006504 10.0148293,17.0692683 L10.0148293,18.3132358 L10.0148293,18.372813 L9.80943089,18.372813 C9.32865041,18.372813 9.01814634,18.1048455 8.55134959,17.6676423 C8.02588618,17.1755447 7.37196748,16.5630569 6.23635772,16.5630569 L5.36247154,16.5630569 C4.30126829,16.5630569 4.12403252,17.4254309 4.01821138,17.9406829 C3.89645528,18.5331382 3.83876423,18.6493008 3.45053659,18.6493008 L3.4424065,18.6493008 L3.4424065,18.2561951 L3.4424065,17.6388293 C3.4424065,17.6209431 3.4420813,17.5971382 3.44156098,17.568 C3.41814634,16.0835772 3.83681301,15.2930732 4.6862439,15.2183415 L4.6862439,15.2183415 Z M3.4963252,20.7540163 C3.46055285,20.5992846 3.44247154,20.4458537 3.44247154,20.2980163 L3.44247154,19.6247805 L3.45060163,19.6247805 C4.6681626,19.6247805 4.86699187,18.6569106 4.97385366,18.1369756 C5.09684553,17.5386016 5.1478374,17.5386016 5.36253659,17.5386016 L6.2364878,17.5386016 C6.98653659,17.5386016 7.40273171,17.9283252 7.88455285,18.3796423 C8.36936585,18.8336911 8.91882927,19.3483577 9.80956098,19.3483577 L10.0149593,19.3483577 L10.0149593,20.2980163 C10.0149593,20.4458537 9.99687805,20.5992846 9.96078049,20.7553171 C9.70217886,21.8889756 8.64611382,23.0645854 7.5036748,23.4900813 C7.21060163,23.5997398 6.96435772,23.6507967 6.72878049,23.6507967 C6.49320325,23.6507967 6.24695935,23.5997398 5.95323577,23.4898211 C4.81131707,23.0645854 3.75518699,21.8890407 3.4963252,20.7540163 L3.4963252,20.7540163 Z M7.25131707,25.4028618 L7.09287805,26.0226341 L6.36104065,26.0226341 L6.20364228,25.4053333 L6.72865041,24.8492358 L7.25131707,25.4028618 Z M4.52689431,23.8133333 C4.86855285,24.0609431 5.23479675,24.2634146 5.61190244,24.4039024 C5.66146341,24.422439 5.7102439,24.4396748 5.75837398,24.4558699 L5.03349593,25.2236748 C4.99291057,25.1966179 4.94712195,25.1671545 4.8956748,25.1368455 L3.65606504,24.3351545 L4.52689431,23.8133333 Z M4.53970732,29.024065 L4.87772358,29.5979187 L0.975609756,29.5979187 L0.975609756,26.9122602 C0.975609756,25.9240976 1.4055935,25.6403902 2.46517073,25.0383089 C2.54887805,24.9906992 2.6340813,24.9423089 2.72097561,24.8921626 L4.37476423,25.9617561 C4.38113821,25.9658537 4.3875122,25.9697561 4.39401626,25.9735935 C4.4524878,26.0076748 4.504,26.0429919 4.55382114,26.0771382 C4.66484553,26.1532358 4.85756098,26.2852683 5.09021138,26.2852683 C5.18744715,26.2852683 5.29170732,26.2618537 5.39986992,26.2019512 L5.46647154,26.4632195 L4.51596748,28.5226667 C4.43434146,28.6854634 4.44338211,28.8701789 4.53970732,29.024065 L4.53970732,29.024065 Z M7.44357724,29.5979187 L6.72891057,29.5979187 C6.72884553,29.5979187 6.72878049,29.5979187 6.72865041,29.5979187 L6.01001626,29.5979187 L5.49658537,28.7262439 L6.29411382,26.9983089 L7.15960976,26.9983089 L7.95713821,28.7262439 L7.44357724,29.5979187 Z M9.92065041,28.3348293 L9.92065041,29.5979187 L8.57586992,29.5979187 L8.91395122,29.0241301 C9.01014634,28.8705041 9.01925203,28.6859837 8.9377561,28.5229919 L7.98718699,26.4634797 L8.05443902,26.2003902 C8.16370732,26.2615285 8.26907317,26.2854634 8.36734959,26.2854634 C8.60091057,26.2854634 8.79447154,26.1525203 8.90588618,26.0759675 C8.95531707,26.0420813 9.00637398,26.0069593 9.06419512,25.9730732 C9.07037398,25.9694959 9.07642276,25.9657236 9.0824065,25.9618862 L10.7362602,24.8922927 C10.8232195,24.942439 10.9083577,24.9908943 10.9918049,25.0386992 C11.3748943,25.2565854 11.6753821,25.4321951 11.9036748,25.6156098 C10.8839024,26.1943415 9.92065041,26.7419837 9.92065041,28.3348293 L9.92065041,28.3348293 Z M29.6429268,24.3354797 L28.4052033,25.1367805 C28.3531707,25.1673496 28.3069919,25.1972683 28.2660163,25.2245854 L27.9993496,24.9416585 C27.9941463,24.9358049 27.9876423,24.9293008 27.9817886,24.9234472 L27.540813,24.4558049 C27.5889431,24.4401951 27.6370732,24.4226341 27.6865041,24.4044228 C28.0637398,24.2632846 28.4299187,24.0610081 28.7720325,23.8132033 L29.6429268,24.3354797 Z M24.5294309,15.2180813 C24.6653659,15.206374 24.7902439,15.1380813 24.8734959,15.0301138 C25.3678049,14.3881626 26.5313821,14.2177561 27.7034146,14.6164553 C28.6972358,14.9553171 29.8582114,15.8001951 29.8582114,17.0691382 L29.8582114,18.3725528 L29.6513821,18.3725528 C29.1707317,18.3725528 28.8604878,18.1052358 28.3941463,17.6681626 C27.8686179,17.1758049 27.2149593,16.563122 26.0780488,16.563122 L25.2039024,16.563122 C24.142439,16.563122 23.9655285,17.425561 23.8601626,17.9413333 C23.7385366,18.5332033 23.6813008,18.6489756 23.2943089,18.6489756 L23.2839024,18.6489756 L23.2839024,17.6388943 C23.2839024,17.6213333 23.2839024,17.5972683 23.283252,17.5686504 C23.2604878,16.0837724 23.6793496,15.292878 24.5294309,15.2180813 L24.5294309,15.2180813 Z M23.3398374,20.7543415 C23.3027642,20.5943415 23.2839024,20.4408455 23.2839024,20.2977561 L23.2839024,19.6245854 L23.2943089,19.6245854 C24.5105691,19.6245854 24.7089431,18.6567805 24.8156098,18.1371057 C24.9385366,17.5387317 24.9892683,17.5387317 25.2039024,17.5387317 L26.0780488,17.5387317 C26.8292683,17.5387317 27.2455285,17.9283252 27.7268293,18.3797073 C28.2113821,18.8336911 28.7603252,19.3481626 29.6513821,19.3481626 L29.8582114,19.3481626 L29.8582114,20.2977561 C29.8582114,20.4408455 29.8393496,20.5943415 29.8022764,20.7556423 C29.544065,21.8893008 28.4878049,23.0645854 27.3443902,23.4906016 C27.0536585,23.5998699 26.8078049,23.6506016 26.5704065,23.6506016 C26.3343089,23.6506016 26.0891057,23.5998699 25.7964228,23.4899512 C24.6530081,23.063935 23.596748,21.8886504 23.3398374,20.7543415 L23.3398374,20.7543415 Z M27.0933333,25.4034472 L26.935935,26.0226341 L26.2029268,26.0226341 L26.0455285,25.4053984 L26.5704065,24.8493008 L27.0933333,25.4034472 Z M24.3694309,23.8138537 C24.7108943,24.0610081 25.0770732,24.2632846 25.4543089,24.4037724 C25.5037398,24.4219837 25.5525203,24.4395447 25.6006504,24.4558049 L24.8754472,25.2232846 C24.8344715,25.1966179 24.7889431,25.1673496 24.737561,25.1367805 L23.499187,24.3348293 L24.3694309,23.8138537 Z M19.7229268,25.7592195 L18.4852033,26.5611707 C18.4331707,26.5910894 18.3869919,26.6210081 18.3460163,26.6476748 L17.6201626,25.8801951 C17.6682927,25.863935 17.7164228,25.8470244 17.7658537,25.828813 C18.1437398,25.6876748 18.5099187,25.484748 18.8520325,25.2362927 L19.7229268,25.7592195 Z M14.6087805,16.6411057 C14.7446504,16.6291382 14.8693333,16.5609106 14.9525203,16.452878 C15.4470894,15.8110569 16.6107317,15.641561 17.7828293,16.0406504 C18.775935,16.3788618 19.9356748,17.2237398 19.9356748,18.4920325 L19.9356748,19.7348943 C19.9356748,19.7352195 19.9356748,19.7355447 19.9356748,19.7358049 L19.9356748,19.7973333 L19.7302764,19.7973333 C19.2497561,19.7973333 18.9396423,19.529561 18.4733659,19.0926179 C17.9479675,18.6003252 17.2941138,17.9875772 16.1572683,17.9875772 L15.2833821,17.9875772 C14.2218537,17.9875772 14.044878,18.8503415 13.939187,19.3657886 C13.8177561,19.9577236 13.7602602,20.0737561 13.3733333,20.0737561 L13.3633171,20.0737561 L13.3633171,19.6805203 L13.3633171,19.0614634 C13.3633171,19.0435772 13.3629919,19.0197724 13.3624715,18.9907642 C13.3389268,17.5063415 13.7582439,16.7158374 14.6087805,16.6411057 L14.6087805,16.6411057 Z M13.4185366,22.183935 C13.3821138,22.0167805 13.363252,21.8613333 13.363252,21.7208455 L13.363252,21.0493659 L13.3732683,21.0493659 C14.5897886,21.0493659 14.7882276,20.0816911 14.8948943,19.5617561 C15.017626,18.963122 15.0686829,18.963122 15.2833821,18.963122 L16.1572683,18.963122 C16.9084878,18.963122 17.3245528,19.3529756 17.8063089,19.8044228 C18.2907317,20.2583415 18.8398049,20.772878 19.7303415,20.772878 L19.9356748,20.772878 L19.9356748,21.7207805 C19.9356748,21.8684228 19.9174634,22.0225691 19.8816911,22.1793171 C19.6228293,23.3116748 18.5665691,24.4876098 17.4257561,24.9142764 C17.1291707,25.0241951 16.8826667,25.0755772 16.6498211,25.0755772 C16.4182764,25.0755772 16.171122,25.0241951 15.8745366,24.9142764 C14.7323577,24.4876748 13.6760976,23.3117398 13.4185366,22.183935 L13.4185366,22.183935 Z M17.1726829,26.8265366 L17.0152846,27.4457236 L16.281626,27.4457236 L16.124878,26.8284878 L16.6497561,26.2730407 L17.1726829,26.8265366 Z M14.9534959,26.6470244 C14.9131707,26.6203577 14.8676423,26.5910894 14.8156098,26.5611707 L13.5778862,25.7592195 L14.4474797,25.2362927 C14.7902439,25.484748 15.1570732,25.6876748 15.5349593,25.8294634 C15.5837398,25.8470244 15.6318699,25.863935 15.6793496,25.8795447 L14.9534959,26.6470244 Z M17.3645528,31.0223089 L15.9310569,31.0223089 L15.4178862,30.148813 L16.2146341,28.4213333 L17.0822764,28.4213333 L17.878374,30.1501138 L17.3645528,31.0223089 Z M22.4045528,31.0223089 L18.4969106,31.0223089 L18.835122,30.4486504 C18.9294309,30.2964553 18.9398374,30.1130407 18.8604878,29.950439 C18.8598374,29.9491382 18.859187,29.947187 18.8585366,29.9458862 L17.9095935,27.8860488 L17.9765854,27.6245854 C18.0852033,27.6850732 18.1905691,27.7091382 18.2881301,27.7091382 C18.5203252,27.7091382 18.7128455,27.5777561 18.824065,27.5023089 C18.8741463,27.4678374 18.9255285,27.4327154 18.984065,27.3988943 C18.9912195,27.3949919 18.998374,27.390439 19.0055285,27.3865366 L20.657561,26.3166179 C20.7265041,26.3569431 20.7954472,26.3959675 20.862439,26.4343415 C20.88,26.4440976 20.897561,26.4545041 20.915122,26.4642602 C21.9746341,27.0658862 22.4045528,27.3494634 22.4045528,28.3348293 L22.4045528,31.0223089 Z M24.3876423,29.032065 L24.7206504,29.5979187 L23.3801626,29.5979187 L23.3801626,28.3348293 C23.3801626,26.7419837 22.4169106,26.1949919 21.3970732,25.6154797 C21.3970732,25.6154797 21.3964228,25.6154797 21.3964228,25.6148293 C21.624065,25.432065 21.9245528,25.2558049 22.3069919,25.0392195 C22.3908943,24.9910894 22.476748,24.9429593 22.5639024,24.8922276 L24.2165854,25.9614959 C24.222439,25.9660488 24.2289431,25.9699512 24.2354472,25.9738537 C24.2939837,26.0076748 24.3453659,26.0427967 24.3954472,26.0766179 C24.4982114,26.1468618 24.6946341,26.2814959 24.9326829,26.2814959 C25.0295935,26.2814959 25.1336585,26.2587317 25.2409756,26.2001951 L25.3079675,26.4629593 L24.3577236,28.5227967 C24.3570732,28.5234472 24.3570732,28.5234472 24.3570732,28.5240976 C24.2738211,28.6919024 24.2855285,28.8779187 24.3876423,29.032065 L24.3876423,29.032065 Z M27.2852033,29.5979187 L25.8523577,29.5979187 L25.339187,28.7250732 L26.135935,26.9982439 L27.0029268,26.9982439 L27.7996748,28.7244228 L27.2852033,29.5979187 Z M32.3252033,29.5979187 L28.417561,29.5979187 L28.755122,29.0242602 C28.8461789,28.8798699 28.8604878,28.7101138 28.7941463,28.5527154 C28.7902439,28.5429593 28.7856911,28.5325528 28.7811382,28.5227967 L27.8302439,26.4629593 L27.8972358,26.2008455 C28.0058537,26.2613333 28.1112195,26.2853984 28.2094309,26.2853984 C28.4422764,26.2853984 28.6360976,26.1527154 28.7473171,26.0766179 C28.796748,26.0427967 28.8481301,26.0076748 28.9066667,25.9738537 C28.9131707,25.9699512 28.9196748,25.9660488 28.9261789,25.9614959 L30.5782114,24.8922276 C30.6653659,24.9429593 30.7512195,24.9910894 30.835122,25.0392195 C31.8952846,25.6408455 32.3252033,25.9244228 32.3252033,26.9123902 L32.3252033,29.5979187 Z" id="Shape"></path>
        </g>
    </g>
</svg>