<svg id="Layer_1" data-name="Layer 1" xmlns="http://www.w3.org/2000/svg" viewBox="0 0 20.38 17.13"><defs><style>.cls-1{fill:#fff;fill-rule:evenodd;}</style></defs><path class="cls-1" d="M1.75,13.9a1.27,1.27,0,0,1,.55-.77,1.24,1.24,0,0,1,1.29,2.11,1.27,1.27,0,0,1-.64.18,1.24,1.24,0,0,1-1.06-.59A1.21,1.21,0,0,1,1.75,13.9Zm.44.75a.88.88,0,1,0,.29-1.22.9.9,0,0,0-.4.55A.83.83,0,0,0,2.19,14.65Z" transform="translate(0 0)"/><path class="cls-1" d="M15.28,1.41,20,9.08a3,3,0,0,1-1,4.05L13.11,16.7a3,3,0,0,1-1.53.43H2.94A2.94,2.94,0,0,1,.35,12.79L4.29,5.16A2.94,2.94,0,0,1,5.37,4L11.24.43A2.94,2.94,0,0,1,15.28,1.41Zm-2.35,15,5.86-3.57a2.6,2.6,0,0,0,.87-3.58L15,1.59A2.62,2.62,0,0,0,12.76.34a2.58,2.58,0,0,0-1.35.38L5.55,4.29a2.64,2.64,0,0,0-1,1L.65,13a2.63,2.63,0,0,0,.07,2.59A2.6,2.6,0,0,0,3,16.79h8.59A2.6,2.6,0,0,0,12.93,16.41Z" transform="translate(0 0)"/><path class="cls-1" d="M12.7,7.89A1.89,1.89,0,0,1,10.82,11l-.16,0,.19-.78L7.92,11.91,9.7,14.84l.38-1.57.17,0a4.31,4.31,0,0,0,4.54-6.69Z" transform="translate(0 0)"/><path class="cls-1" d="M14.62,6.32,12.84,3.39,12.46,5l-.17,0a4.44,4.44,0,0,0-1-.12,4.32,4.32,0,0,0-3.52,6.82l2.09-1.28a1.89,1.89,0,0,1,1.87-3.06l.17,0-.19.78Z" transform="translate(0 0)"/></svg>