<svg xmlns="http://www.w3.org/2000/svg" width="20.384" height="17.132" viewBox="0 0 20.384 17.132">
  <g>
    <path fill="rgb(72,86,162)" fill-rule="evenodd" d="M1.74804688 13.89562988c.07806396-.31964111.27520751-.59008789.55621337-.76086425.57952881-.35394288 1.3380127-.168396 1.69158936.41070556.35290527.57952881.1687622 1.33868408-.41070557 1.69195557-.19921875.121521-.42034912.17938232-.6387329.17938232-.41552735 0-.82147218-.21020508-1.05322266-.59082031-.17114258-.28033447-.22247315-.61096191-.1451416-.93035889zm.43743896.75268555c.25500488.41827393.80303955.55145264 1.22161865.29675293.41827393-.25500488.55108643-.80297852.29644776-1.22161865-.16705323-.27416992-.46038819-.42578125-.76025391-.42578125-.15740967 0-.31695557.04174804-.46105957.12902832-.20263672.12390136-.34533691.31866455-.40148926.54937744-.05578613.23071289-.01879883.46929932.10473633.67224121z"/>
    <path fill="rgb(72,86,162)" fill-rule="evenodd" d="M15.28387451 1.4126587l4.6715088 7.66925048c.84472655 1.3873291.40356444 3.20385742-.98339845 4.0489502l-5.8630371 3.57073974c-.46173096.28131104-.99157715.43023682-1.53277588.43023682H2.99304198c-.01678467.0003662-.03356933.0003662-.050354.0003662-1.0203247 0-1.98150635-.53808593-2.51409912-1.41369628-.5421753-.88989258-.57196045-2.01226807-.07800293-2.92993164l3.9366455-7.6237793c.24810792-.4802246.62329102-.88305664 1.08538819-1.1644287L11.2355957.42926024c1.3869629-.84472656 3.203125-.40423584 4.04827881.98339844zm-2.35290527 14.99700927l5.8630371-3.57110596c1.22607423-.74719238 1.61590577-2.35217285.8690796-3.57861328l-4.67120362-7.66925049C14.50170898.78668213 13.64257812.34204102 12.76361084.34204102c-.46142578 0-.92797852.12255859-1.34997559.37957763L5.55059815 4.2923584c-.4083252.24920654-.74005127.60516357-.95910645 1.02960205L.65350342 12.94842529c-.43811035.81329346-.41174317 1.8059082.06707763 2.5925293.47888184.78588867 1.35375977 1.26470947 2.26934815 1.24865723h8.58630371c.47851563 0 .9467163-.13146973 1.35473633-.37994385z"/>
    <path fill="rgb(72,86,162)" fill-rule="evenodd" d="M12.70138503 7.88840694c.50144981.58428316.6010552 1.42459667.23070114 2.1167001-.40560957.75816473-1.27091 1.14460625-2.10814293.94334175l-.16635127-.0403898.18928447-.78007108-2.93031525 1.7853667 1.78433984 2.93065754.3823341-1.5717799.16635126.04004754c1.77578268.43230792 3.63816386-.30703105 4.63627147-1.8367097.97004012-1.48655053.926912-3.42012731-.09515566-4.85978459l-2.08931717 1.27262144z"/>
    <path fill="rgb(147,184,125)" fill-rule="evenodd" d="M14.62171532 6.31806465l-1.78502441-2.93099982-.38164952 1.57177989-.16635127-.04004753c-.33749455-.08214877-.67841196-.12151173-1.01556423-.12151173-1.43691898 0-2.81291096.71948635-3.62104953 1.95822142-.97004011 1.48689282-.92656972 3.4204696.09515567 4.86012688l2.08931717-1.27296372c-.50110753-.58394087-.6010552-1.4239121-.23104343-2.1163578.40560957-.75884931 1.27159457-1.14529084 2.1088275-.94402634l.16600898.0407321-.18962675.78007107 2.93099982-1.78502442z"/>
  </g>
</svg>
